<svg width="32" height="31" viewBox="0 0 32 31" fill="none" xmlns="http://www.w3.org/2000/svg">
<path d="M12.7528 21.2969C11.1734 22.7773 7.4968 25.4082 2.94564 23.3213C5.5693 27.9143 10.4337 31 15.9987 31C11.9392 28.0302 12.3047 23.4417 12.7528 21.3014M12.7528 9.70756C12.3047 7.56271 11.9392 2.97871 15.9987 0.0089134C10.4337 0.0089134 5.5693 3.09465 2.94564 7.68757C7.4968 5.59623 11.1734 8.23159 12.7528 9.71203M9.6375 15.5045C7.66649 14.8757 3.4112 12.9182 2.94564 7.68757C1.63598 9.98403 0.878906 12.6506 0.878906 15.5045C0.878906 18.3583 1.63163 21.0249 2.94564 23.3213C3.41555 18.0952 7.66649 16.1377 9.6375 15.5045ZM15.9987 0.0044567C20.0582 2.97425 19.6927 7.56271 19.2445 9.70311C20.824 8.22267 24.5006 5.58731 29.0517 7.67866C26.4281 3.08573 21.5636 0 15.9987 0M29.0561 7.68757C28.5862 12.9137 24.3309 14.8713 22.3599 15.5045C24.3309 16.1377 28.5862 18.0908 29.0561 23.3213C30.3657 21.0249 31.1228 18.3583 31.1228 15.5045C31.1228 12.6506 30.3701 9.98403 29.0561 7.68757ZM19.2445 21.2969C19.6927 23.4417 20.0582 28.0258 15.9987 30.9956C21.5636 30.9956 26.4281 27.9098 29.0517 23.3169C24.5006 25.4082 20.824 22.7729 19.2445 21.2924M17.961 19.2591C18.3308 18.88 18.4439 18.3405 18.3004 17.8633C18.7659 18.006 19.2924 17.8901 19.6622 17.5155C20.1931 16.9715 20.1583 16.0529 19.6274 15.5045C20.1583 14.9604 20.1931 14.0419 19.6622 13.4934C19.2924 13.1144 18.7703 12.9984 18.3004 13.1411C18.4396 12.664 18.3265 12.1244 17.961 11.7454C17.4258 11.2014 16.5339 11.2371 15.9987 11.7811C15.4679 11.2371 14.5715 11.1969 14.0364 11.7454C13.6665 12.1244 13.5534 12.6595 13.697 13.1411C13.2314 12.9984 12.705 13.1144 12.3351 13.4934C11.8043 14.0374 11.8391 14.956 12.3699 15.5045C11.8391 16.0529 11.8043 16.9671 12.3351 17.5155C12.705 17.8946 13.2314 18.0105 13.697 17.8633C13.5578 18.3405 13.6709 18.88 14.0364 19.2591C14.5672 19.8075 15.4635 19.7674 15.9987 19.2234C16.5339 19.7674 17.4258 19.8031 17.961 19.2591Z" fill="#2575FC"/>
</svg>
