<svg width="31" height="31" viewBox="0 0 31 31" fill="none" xmlns="http://www.w3.org/2000/svg">
<path d="M30.8777 15.4978C30.8777 13.2634 29.6335 11.3279 27.815 10.3779C28.4458 8.38887 27.9934 6.11884 26.449 4.53561C24.909 2.95685 22.6903 2.48857 20.75 3.1397C19.8234 1.2755 17.9353 0 15.7557 0C13.5762 0 11.6881 1.2755 10.7615 3.1397C8.82122 2.49303 6.60688 2.95685 5.06249 4.53561C3.52245 6.11438 3.06565 8.38887 3.69646 10.3779C1.878 11.3279 0.633789 13.2634 0.633789 15.4978C0.633789 17.7321 1.878 19.6677 3.69646 20.6176C3.06565 22.6067 3.5181 24.8767 5.06249 26.4599C6.60253 28.0387 8.82122 28.507 10.7615 27.8603C11.6881 29.7245 13.5762 31 15.7557 31C17.9353 31 19.8234 29.7245 20.75 27.8603C22.6903 28.507 24.9046 28.0432 26.449 26.4599C27.989 24.8812 28.4458 22.6067 27.815 20.6176C29.6335 19.6677 30.8777 17.7321 30.8777 15.4978ZM15.7601 2.97469C16.4736 2.97469 17.0565 3.56784 17.0565 4.3037C17.0565 5.03957 16.4779 5.63272 15.7601 5.63272C15.0423 5.63272 14.4637 5.03957 14.4637 4.3037C14.4637 3.56784 15.0423 2.97469 15.7601 2.97469ZM7.12457 6.64063C7.62921 6.12329 8.45144 6.12329 8.95608 6.64063C9.46073 7.15796 9.46073 8.00086 8.95608 8.5182C8.45144 9.03554 7.62921 9.03554 7.12457 8.5182C6.61992 8.00086 6.61992 7.15796 7.12457 6.64063ZM4.84061 16.8223C4.1228 16.8223 3.5442 16.2292 3.5442 15.4933C3.5442 14.7574 4.1228 14.1643 4.84061 14.1643C5.55843 14.1643 6.13703 14.7574 6.13703 15.4933C6.13703 16.2292 5.55843 16.8223 4.84061 16.8223ZM8.95608 24.3505C8.45144 24.8678 7.62921 24.8678 7.12457 24.3505C6.61992 23.8331 6.61992 22.9902 7.12457 22.4729C7.62921 21.9555 8.45144 21.9555 8.95608 22.4729C9.46073 22.9902 9.46073 23.8331 8.95608 24.3505ZM15.7601 28.0164C15.0423 28.0164 14.4637 27.4232 14.4637 26.6874C14.4637 25.9515 15.0423 25.3584 15.7601 25.3584C16.4779 25.3584 17.0565 25.9515 17.0565 26.6874C17.0565 27.4232 16.4779 28.0164 15.7601 28.0164ZM18.7184 20.0468L18.5313 22.4015L16.7998 20.8763L15.7601 22.9635L14.7116 20.8584L12.9541 22.3881L12.7801 20.0557L10.6092 20.7782L11.3183 18.5304L9.02134 18.3387L10.5092 16.5592L8.47319 15.4933L10.5266 14.4185L9.03439 12.6212L11.3096 12.4428L10.6049 10.2174L12.7931 10.9443L12.9802 8.59402L14.716 10.1148L15.7557 8.03209L16.8042 10.1326L18.5574 8.60294L18.7314 10.9354L20.9022 10.2129L20.1931 12.4562L22.4901 12.648L21.0067 14.4274L23.0383 15.4933L20.9849 16.5681L22.4771 18.3654L20.2018 18.5438L20.9066 20.7692L18.7184 20.0423V20.0468ZM24.3956 24.3505C23.891 24.8678 23.0687 24.8678 22.5641 24.3505C22.0595 23.8331 22.0595 22.9902 22.5641 22.4729C23.0687 21.9555 23.891 21.9555 24.3956 22.4729C24.9003 22.9902 24.9003 23.8331 24.3956 24.3505ZM24.3956 8.52266C23.891 9.03999 23.0687 9.03999 22.5641 8.52266C22.0595 8.00532 22.0595 7.16243 22.5641 6.64509C23.0687 6.12775 23.891 6.12775 24.3956 6.64509C24.9003 7.16243 24.9003 8.00532 24.3956 8.52266ZM26.6796 16.8223C25.9618 16.8223 25.3831 16.2292 25.3831 15.4933C25.3831 14.7574 25.9618 14.1643 26.6796 14.1643C27.3974 14.1643 27.976 14.7574 27.976 15.4933C27.976 16.2292 27.3974 16.8223 26.6796 16.8223Z" fill="#00C878"/>
</svg>
