<svg width="33" height="33" viewBox="0 0 33 33" fill="none" xmlns="http://www.w3.org/2000/svg">
<path d="M32.6339 16.5C30.9426 12.2476 26.2937 11.6118 25.2931 11.5216C25.634 11.1248 27.4847 8.81143 27.5555 5.31662C23.9559 5.39328 21.6359 7.46311 21.4189 7.66152C21.4012 7.32332 21.0603 1.87592 16.5176 0C11.975 1.87141 11.6341 7.31881 11.6164 7.66152C11.4038 7.46311 9.07936 5.39328 5.47977 5.31662C5.55061 8.81143 7.40132 11.1248 7.74225 11.5216C6.74162 11.6118 2.08826 12.2476 0.401367 16.5C2.09269 20.7524 6.74162 21.3882 7.74225 21.4784C7.40132 21.8752 5.55061 24.1886 5.47977 27.6834C9.07936 27.6067 11.3994 25.5369 11.6164 25.3385C11.6341 25.6767 11.975 31.1286 16.5176 33C21.0603 31.1286 21.4012 25.6812 21.4189 25.3385C21.6315 25.5369 23.9559 27.6067 27.5555 27.6834C27.4847 24.1886 25.634 21.8752 25.2931 21.4784C26.2937 21.3882 30.947 20.7524 32.6339 16.5ZM6.64864 18.191C5.73214 18.191 4.98388 17.4335 4.98388 16.5C4.98388 15.5665 5.72771 14.809 6.64864 14.809C7.56957 14.809 8.30897 15.5665 8.30897 16.5C8.30897 17.4335 7.56514 18.191 6.64864 18.191ZM16.5176 4.75294C17.4342 4.75294 18.178 5.51053 18.178 6.44398C18.178 7.37743 17.4342 8.13952 16.5176 8.13952C15.6011 8.13952 14.8529 7.38194 14.8529 6.44398C14.8529 5.50602 15.5967 4.75294 16.5176 4.75294ZM16.5176 28.2426C15.6011 28.2426 14.8529 27.485 14.8529 26.547C14.8529 25.609 15.5967 24.8515 16.5176 24.8515C17.4386 24.8515 18.178 25.609 18.178 26.547C18.178 27.485 17.4342 28.2426 16.5176 28.2426ZM20.4405 17.2937C20.8035 17.4831 20.9718 17.925 20.8124 18.3128C20.6574 18.6961 20.2412 18.8855 19.8604 18.7728C20.1128 19.0884 20.0951 19.5484 19.8073 19.846C19.5151 20.1436 19.0502 20.1572 18.7403 19.8866C18.8643 20.2834 18.6783 20.7163 18.2931 20.8787C17.9168 21.0365 17.4917 20.8741 17.3013 20.5179C17.2615 20.9238 16.9294 21.2394 16.5221 21.2394C16.1147 21.2394 15.7694 20.9102 15.7384 20.4954C15.5524 20.8651 15.1185 21.0365 14.7333 20.8742C14.357 20.7163 14.171 20.2924 14.2817 19.9046C13.9718 20.1617 13.5202 20.1436 13.228 19.8505C12.9358 19.5529 12.9225 19.0794 13.1881 18.7637C12.7985 18.89 12.3735 18.7006 12.2185 18.3083C12.0635 17.925 12.2229 17.4921 12.5727 17.2982C12.1742 17.2576 11.8643 16.9194 11.8643 16.5045C11.8643 16.0896 12.1875 15.7379 12.5948 15.7063C12.2318 15.5169 12.0635 15.075 12.2229 14.6872C12.3779 14.3039 12.7941 14.1145 13.1749 14.2273C12.9225 13.9116 12.9402 13.4516 13.228 13.154C13.5202 12.8564 13.9851 12.8429 14.295 13.1134C14.1666 12.7166 14.357 12.2837 14.7422 12.1259C15.1185 11.968 15.5436 12.1304 15.734 12.4866C15.7738 12.0808 16.1059 11.7651 16.5132 11.7651C16.9206 11.7651 17.2659 12.0943 17.2969 12.5092C17.4829 12.1394 17.9168 11.968 18.2975 12.1304C18.6739 12.2882 18.8598 12.7121 18.7491 13.0999C19.0591 12.8429 19.5107 12.8609 19.8029 13.154C20.0951 13.4516 20.1084 13.9251 19.8427 14.2408C20.2324 14.1145 20.6574 14.3039 20.8124 14.6962C20.9673 15.0795 20.8079 15.5124 20.4582 15.7063C20.8566 15.7469 21.1666 16.0851 21.1666 16.5C21.1666 16.9149 20.8434 17.2666 20.436 17.2982M26.3867 18.191C25.4702 18.191 24.7263 17.4335 24.7263 16.5C24.7263 15.5665 25.4702 14.809 26.3867 14.809C27.3032 14.809 28.0514 15.5665 28.0514 16.5C28.0514 17.4335 27.3076 18.191 26.3867 18.191Z" fill="#F54500"/>
</svg>
