<svg width="20" height="20" viewBox="0 0 20 20" fill="none" xmlns="http://www.w3.org/2000/svg">
<path d="M1.66602 7.14302C1.66602 5.3472 1.66602 4.44928 2.15417 3.89139C2.64232 3.3335 3.428 3.3335 4.99935 3.3335H14.9993C16.5707 3.3335 17.3563 3.3335 17.8445 3.89139C18.3327 4.44928 18.3327 5.3472 18.3327 7.14302V12.8573C18.3327 14.6532 18.3327 15.5511 17.8445 16.1089C17.3563 16.6668 16.5707 16.6668 14.9993 16.6668H4.99935C3.428 16.6668 2.64232 16.6668 2.15417 16.1089C1.66602 15.5511 1.66602 14.6532 1.66602 12.8573V7.14302Z" stroke="#646A83" stroke-width="1.25" stroke-linejoin="round"/>
<path d="M10.0007 11.6668C10.9211 11.6668 11.6673 10.9206 11.6673 10.0002C11.6673 9.07969 10.9211 8.3335 10.0007 8.3335C9.08018 8.3335 8.33398 9.07969 8.33398 10.0002C8.33398 10.9206 9.08018 11.6668 10.0007 11.6668Z" stroke="#646A83" stroke-width="1.25" stroke-linejoin="round"/>
<path d="M10 8.33317V4.1665M10 11.6665V15.8332" stroke="#646A83" stroke-width="1.25" stroke-linecap="round" stroke-linejoin="round"/>
<path d="M18.3327 7.5H16.2493C15.7891 7.5 15.416 7.8731 15.416 8.33333V11.6667C15.416 12.1269 15.7891 12.5 16.2493 12.5H18.3327" stroke="#646A83" stroke-width="1.25" stroke-linecap="round" stroke-linejoin="round"/>
<path d="M1.66602 7.5H3.74935C4.20958 7.5 4.58268 7.8731 4.58268 8.33333V11.6667C4.58268 12.1269 4.20958 12.5 3.74935 12.5H1.66602" stroke="#646A83" stroke-width="1.25" stroke-linecap="round" stroke-linejoin="round"/>
</svg>
