<svg width="20" height="20" viewBox="0 0 20 20" fill="none" xmlns="http://www.w3.org/2000/svg">
<path d="M12.0827 7.49984C12.0827 8.65042 11.1499 9.58317 9.99935 9.58317C8.84877 9.58317 7.91602 8.65042 7.91602 7.49984C7.91602 6.34925 8.84877 5.4165 9.99935 5.4165C11.1499 5.4165 12.0827 6.34925 12.0827 7.49984Z" stroke="#646A83" stroke-width="1.25"/>
<path d="M11.0472 14.5778C10.7661 14.8485 10.3904 14.9998 9.99952 14.9998C9.60852 14.9998 9.23285 14.8485 8.95177 14.5778C6.37793 12.0838 2.92867 9.29775 4.61077 5.25295C5.52027 3.06594 7.70347 1.6665 9.99952 1.6665C12.2955 1.6665 14.4787 3.06595 15.3882 5.25295C17.0682 9.29267 13.6273 12.0924 11.0472 14.5778Z" stroke="#646A83" stroke-width="1.25"/>
<path d="M15 16.6665C15 17.587 12.7614 18.3332 10 18.3332C7.23857 18.3332 5 17.587 5 16.6665" stroke="#646A83" stroke-width="1.25" stroke-linecap="round"/>
</svg>
